<?xml version="1.0"?>
<svg xmlns="http://www.w3.org/2000/svg" height="512px" viewBox="0 -20 512 512" width="512px" class=""><g><path d="m485.484375 207.4375-19.484375-29.296875v-168.140625c0-5.523438-4.476562-10-10-10h-161.152344c-13.074218 0-25.359375 5.097656-34.589844 14.355469-1.539062 1.546875-2.953124 3.183593-4.257812 4.886719-1.304688-1.703126-2.714844-3.339844-4.257812-4.886719-9.230469-9.257813-21.515626-14.355469-34.589844-14.355469h-161.152344c-5.523438 0-10 4.476562-10 10v168.140625l-19.484375 29.296875c-17.347656 26.085938-26.515625 56.433594-26.515625 87.757812v166.804688c0 5.523438 4.476562 10 10 10s10-4.476562 10-10v-166.804688c0-27.371093 8.011719-53.890624 23.167969-76.679687l2.832031-4.257813v107.660157c0 12.429687 10.113281 22.542969 22.542969 22.542969 7.539062 0 14.542969-3.742188 18.734375-10.007813l21.035156-31.4375c2.074219-3.105469 6.003906-4.453125 9.550781-3.289063 4.152344 1.367188 6.523438 5.609376 5.511719 9.863282l-5.335938 22.464844c-7.917968 33.324218-20.59375 65.269531-37.671874 94.957031-.875 1.519531-1.335938 3.238281-1.335938 4.988281v30c0 5.519531 4.480469 10 10 10 5.523438 0 10-4.480469 10-10v-27.347656c7.945312-14.039063 14.949219-28.546875 21.003906-43.441406h271.929688c6.054687 14.894531 13.058594 29.40625 21.003906 43.441406v27.347656c0 5.523438 4.476562 10 10 10 5.519531 0 10-4.476562 10-10v-30c0-1.75-.460938-3.46875-1.335938-4.988281-17.078124-29.6875-29.753906-61.632813-37.671874-94.957031l-5.335938-22.464844c-1.011719-4.253906 1.359375-8.492188 5.511719-9.863282 3.550781-1.164062 7.476562.1875 9.550781 3.289063l21.035156 31.4375c4.191406 6.265625 11.195313 10.007813 18.734375 10.007813 12.429688 0 22.542969-10.113282 22.542969-22.542969v-107.660157l2.832031 4.257813c15.15625 22.792969 23.167969 49.308594 23.167969 76.679687v166.804688c0 5.523438 4.476562 10 10 10s10-4.476562 10-10v-166.804688c0-31.324218-9.167969-61.671874-26.515625-87.757812zm-371.355469-187.4375h41.820313v132.46875l-13.8125-13.925781c-1.875-1.894531-4.433594-2.957031-7.097657-2.957031-2.667968 0-5.222656 1.0625-7.101562 2.957031l-13.8125 13.925781v-132.46875zm-22.441406 271.894531-21.035156 31.433594c-.472656.707031-1.261719 1.132813-2.113282 1.132813-1.398437 0-2.539062-1.144532-2.539062-2.542969v-301.917969h28.125v156.753906c0 4.050782 2.445312 7.703125 6.191406 9.246094 3.75 1.542969 8.054688.671875 10.910156-2.203125l23.808594-24.011719 23.8125 24.011719c1.917969 1.929687 4.488282 2.957031 7.105469 2.957031 1.28125 0 2.574219-.246094 3.804687-.753906 3.746094-1.542969 6.191407-5.195312 6.191407-9.246094v-156.753906h41.203125c7.71875 0 14.976562 3.011719 20.425781 8.480469 5.453125 5.464843 8.445313 12.730469 8.421875 20.480469v284.914062c-8.316406-6.109375-18.328125-9.414062-28.847656-9.414062h-76.753906l2.433593-10.25c3.433594-14.445313-4.613281-28.839844-18.71875-33.480469-12.039062-3.964844-25.375.625-32.425781 11.164062zm43.859375 52.566407h81.605469c7.71875 0 14.976562 3.011718 20.425781 8.480468 4.9375 4.949219 7.847656 11.371094 8.339844 18.269532h-118.410157c3.007813-8.804688 5.691407-17.726563 8.039063-26.75zm130.535156 26.75c.492188-6.898438 3.402344-13.320313 8.339844-18.269532 5.449219-5.46875 12.707031-8.480468 20.425781-8.480468h81.605469c2.347656 9.023437 5.03125 17.945312 8.039063 26.75zm179.917969-49.292969c0 1.398437-1.140625 2.542969-2.542969 2.542969-.847656 0-1.640625-.425782-2.113281-1.128907l-21.03125-31.4375c-7.050781-10.539062-20.386719-15.128906-32.429688-11.164062-14.101562 4.640625-22.148437 19.035156-18.714843 33.480469l2.433593 10.25h-76.753906c-10.519531 0-20.527344 3.300781-28.847656 9.414062v-284.945312c-.023438-7.71875 2.96875-14.984376 8.421875-20.453126 5.449219-5.464843 12.703125-8.476562 20.425781-8.476562h151.152344zm0 0" data-original="#000000" class="active-path" data-old_color="#ff8246" fill="#ff8246"/><path d="m404.101562 138.375h-96.214843c-5.523438 0-10 4.476562-10 10s4.476562 10 10 10h96.214843c5.523438 0 10-4.476562 10-10s-4.476562-10-10-10zm0 0" data-original="#000000" class="active-path" data-old_color="#ff8246" fill="#ff8246"/><path d="m404.101562 189.039062h-96.214843c-5.523438 0-10 4.476563-10 10 0 5.523438 4.476562 10 10 10h96.214843c5.523438 0 10-4.476562 10-10 0-5.523437-4.476562-10-10-10zm0 0" data-original="#000000" class="active-path" data-old_color="#ff8246" fill="#ff8246"/><path d="m404.101562 239.707031h-96.214843c-5.523438 0-10 4.476563-10 10 0 5.523438 4.476562 10 10 10h96.214843c5.523438 0 10-4.476562 10-10 0-5.523437-4.476562-10-10-10zm0 0" data-original="#000000" class="active-path" data-old_color="#ff8246" fill="#ff8246"/><path d="m307.890625 107.710938c2.628906 0 5.199219-1.070313 7.070313-2.929688 1.859374-1.859375 2.929687-4.441406 2.929687-7.070312 0-2.640626-1.070313-5.210938-2.929687-7.070313-1.859376-1.871094-4.441407-2.929687-7.070313-2.929687-2.640625 0-5.210937 1.058593-7.070313 2.929687-1.859374 1.859375-2.929687 4.429687-2.929687 7.070313 0 2.628906 1.070313 5.210937 2.929687 7.070312 1.859376 1.859375 4.441407 2.929688 7.070313 2.929688zm0 0" data-original="#000000" class="active-path" data-old_color="#ff8246" fill="#ff8246"/><path d="m404.101562 87.707031h-56.214843c-5.523438 0-10 4.476563-10 10 0 5.523438 4.476562 10 10 10h56.214843c5.523438 0 10-4.476562 10-10 0-5.523437-4.476562-10-10-10zm0 0" data-original="#000000" class="active-path" data-old_color="#ff8246" fill="#ff8246"/></g> </svg>
